<svg width="753" height="98" viewBox="0 0 753 98" fill="none" xmlns="http://www.w3.org/2000/svg">
<path d="M670.818 96.384L711.266 0H712.034L752.354 96.384H738.146L707.938 19.456L716.77 13.696L682.978 96.384H670.818ZM694.498 61.312H728.93L733.026 72.064H690.914L694.498 61.312Z" fill="#835546"/>
<path d="M606.125 3.84009H667.565V15.7441H642.733V96.3841H630.317V15.7441H606.125V3.84009Z" fill="#835546"/>
<path d="M501.274 50.176C501.274 43.776 502.469 37.76 504.858 32.128C507.333 26.4107 510.746 21.376 515.098 17.024C519.45 12.5867 524.442 9.1307 530.074 6.65604C535.791 4.09604 541.935 2.81604 548.506 2.81604C554.991 2.81604 561.05 4.09604 566.682 6.65604C572.399 9.1307 577.434 12.5867 581.786 17.024C586.223 21.376 589.679 26.4107 592.154 32.128C594.629 37.76 595.866 43.776 595.866 50.176C595.866 56.7467 594.629 62.8907 592.154 68.608C589.679 74.3254 586.223 79.36 581.786 83.712C577.434 87.9787 572.399 91.3494 566.682 93.824C561.05 96.2134 554.991 97.408 548.506 97.408C541.935 97.408 535.791 96.2134 530.074 93.824C524.442 91.4347 519.45 88.1067 515.098 83.84C510.746 79.5734 507.333 74.5814 504.858 68.864C502.469 63.1467 501.274 56.9174 501.274 50.176ZM514.074 50.304C514.074 55.168 514.97 59.7334 516.762 64C518.554 68.1814 521.029 71.8934 524.186 75.136C527.343 78.3787 531.013 80.9387 535.194 82.816C539.375 84.608 543.898 85.504 548.762 85.504C553.541 85.504 558.021 84.608 562.202 82.816C566.383 80.9387 570.01 78.3787 573.082 75.136C576.154 71.8934 578.586 68.1814 580.378 64C582.17 59.7334 583.066 55.1254 583.066 50.176C583.066 45.312 582.17 40.7467 580.378 36.48C578.586 32.128 576.111 28.3307 572.954 25.088C569.797 21.8454 566.127 19.328 561.946 17.536C557.765 15.6587 553.285 14.72 548.506 14.72C543.642 14.72 539.119 15.6587 534.938 17.536C530.757 19.4134 527.087 21.9734 523.93 25.216C520.773 28.4587 518.341 32.256 516.634 36.608C514.927 40.8747 514.074 45.44 514.074 50.304Z" fill="#835546"/>
<path d="M486.127 89.472C484.591 90.496 482.5 91.648 479.855 92.928C477.21 94.208 474.095 95.2747 470.511 96.128C467.012 96.9814 463.172 97.408 458.991 97.408C451.823 97.3227 445.338 96.0427 439.535 93.568C433.818 91.0934 428.954 87.7227 424.943 83.456C420.932 79.1894 417.818 74.2827 415.599 68.736C413.466 63.104 412.399 57.1307 412.399 50.816C412.399 43.904 413.508 37.5467 415.727 31.744C418.031 25.856 421.231 20.7787 425.327 16.512C429.423 12.16 434.244 8.78937 439.791 6.40004C445.423 4.01071 451.567 2.81604 458.223 2.81604C463.77 2.81604 468.804 3.58404 473.327 5.12003C477.85 6.5707 481.732 8.32004 484.975 10.368L479.983 21.888C477.423 20.1814 474.308 18.56 470.639 17.024C467.055 15.488 463.044 14.72 458.607 14.72C454.084 14.72 449.818 15.616 445.807 17.408C441.796 19.2 438.255 21.7174 435.183 24.96C432.111 28.2027 429.679 32 427.887 36.352C426.18 40.6187 425.327 45.2267 425.327 50.176C425.327 55.2107 426.095 59.904 427.631 64.256C429.252 68.5227 431.514 72.2347 434.415 75.392C437.402 78.5494 440.986 81.024 445.167 82.816C449.348 84.608 454.042 85.504 459.247 85.504C463.94 85.504 468.122 84.7787 471.791 83.328C475.46 81.8774 478.49 80.256 480.879 78.464L486.127 89.472Z" fill="#835546"/>
<path d="M324.193 96.384L364.641 0H365.409L405.729 96.384H391.521L361.313 19.456L370.145 13.696L336.353 96.384H324.193ZM347.873 61.312H382.305L386.401 72.064H344.289L347.873 61.312Z" fill="#835546"/>
<path d="M273.61 3.84009C278.303 3.84009 282.613 4.48009 286.538 5.76009C290.549 6.95476 294.005 8.78943 296.906 11.2641C299.893 13.6534 302.197 16.6401 303.818 20.2241C305.525 23.7228 306.378 27.8188 306.378 32.5121C306.378 36.1814 305.823 39.7654 304.714 43.2641C303.69 46.7628 301.941 49.9628 299.466 52.8641C296.991 55.6801 293.749 57.9841 289.738 59.7761C285.813 61.4828 280.949 62.3361 275.146 62.3361H261.45V96.3841H249.034V3.84009H273.61ZM274.89 50.4321C278.559 50.4321 281.589 49.8774 283.978 48.7681C286.453 47.6588 288.373 46.2508 289.738 44.5441C291.103 42.7521 292.085 40.8321 292.682 38.7841C293.279 36.7361 293.578 34.8161 293.578 33.0241C293.578 31.1468 293.237 29.2268 292.554 27.2641C291.957 25.2161 290.933 23.3388 289.482 21.6321C288.117 19.9254 286.282 18.5174 283.978 17.4081C281.759 16.2988 279.029 15.7441 275.786 15.7441H261.45V50.4321H274.89ZM290.122 57.4721L314.314 96.3841H299.978L275.402 57.8561L290.122 57.4721Z" fill="#835546"/>
<path d="M189.235 3.84009C193.928 3.84009 198.238 4.48009 202.163 5.76009C206.174 6.95476 209.63 8.78943 212.531 11.2641C215.518 13.6534 217.822 16.6401 219.443 20.2241C221.15 23.7228 222.003 27.8188 222.003 32.5121C222.003 36.1814 221.448 39.7654 220.339 43.2641C219.315 46.7628 217.566 49.9628 215.091 52.8641C212.616 55.6801 209.374 57.9841 205.363 59.7761C201.438 61.4828 196.574 62.3361 190.771 62.3361H177.075V96.3841H164.659V3.84009H189.235ZM190.515 50.4321C194.184 50.4321 197.214 49.8774 199.603 48.7681C202.078 47.6588 203.998 46.2508 205.363 44.5441C206.728 42.7521 207.71 40.8321 208.307 38.7841C208.904 36.7361 209.203 34.8161 209.203 33.0241C209.203 31.1468 208.862 29.2268 208.179 27.2641C207.582 25.2161 206.558 23.3388 205.107 21.6321C203.742 19.9254 201.907 18.5174 199.603 17.4081C197.384 16.2988 194.654 15.7441 191.411 15.7441H177.075V50.4321H190.515ZM205.747 57.4721L229.939 96.3841H215.603L191.027 57.8561L205.747 57.4721Z" fill="#835546"/>
<path d="M81.1591 3.84009H141.319V15.7441H93.5751V43.9041H136.199V55.8081H93.5751V84.4801H143.111V96.3841H81.1591V3.84009Z" fill="#835546"/>
<path d="M0 3.84009H61.44V15.7441H36.608V96.3841H24.192V15.7441H0V3.84009Z" fill="#835546"/>
<path d="M123.472 30.384L126.472 44.384" stroke="#835546" stroke-width="6" stroke-linecap="square" stroke-linejoin="round"/>
<path d="M114.472 30.384V44.384" stroke="#835546" stroke-width="6" stroke-linecap="square" stroke-linejoin="round"/>
<path d="M118.472 79.384L99.472 79.384" stroke="#835546" stroke-width="6" stroke-linecap="square" stroke-linejoin="round"/>
<path d="M114.472 71.384L99.472 71.384" stroke="#835546" stroke-width="6" stroke-linecap="square" stroke-linejoin="round"/>
<path d="M106.472 27.384V44.384" stroke="#835546" stroke-width="6" stroke-linecap="square" stroke-linejoin="round"/>
<path d="M548.472 9.38403V45.384" stroke="#835546" stroke-width="2"/>
<path d="M548.472 35.384C555.004 35.384 560.472 42.0085 560.472 50.4192C560.472 52.5566 560.113 53.5664 559.644 54.0139C559.213 54.4258 558.538 54.4892 557.426 54.2268C556.886 54.0993 556.286 53.9065 555.622 53.6809C554.964 53.4577 554.242 53.2026 553.487 52.9661C551.973 52.492 550.273 52.0735 548.472 52.0735C546.672 52.0735 544.971 52.492 543.458 52.9661C542.702 53.2026 541.98 53.4577 541.323 53.6809C540.658 53.9065 540.058 54.0993 539.518 54.2268C538.406 54.4892 537.732 54.4258 537.3 54.0139C536.832 53.5664 536.472 52.5566 536.472 50.4192C536.472 42.0085 541.941 35.384 548.472 35.384Z" fill="#835546" stroke="#835546"/>
<path d="M550.894 54.3967C551.145 54.4235 551.252 54.4891 551.313 54.5618C551.382 54.6446 551.472 54.8341 551.472 55.2786C551.472 57.0075 550.115 58.384 548.472 58.384C546.829 58.384 545.472 57.0075 545.472 55.2786C545.472 54.8341 545.562 54.6446 545.631 54.5618C545.692 54.4891 545.8 54.4235 546.05 54.3967C546.31 54.369 546.638 54.3913 547.066 54.429C547.477 54.4651 547.962 54.5129 548.472 54.5129C548.982 54.5129 549.467 54.4651 549.878 54.429C550.306 54.3913 550.634 54.369 550.894 54.3967Z" fill="#835546" stroke="#835546"/>
</svg>
